<svg t="1604891008645" class="icon" viewBox="0 0 1024 1024" version="1.1" xmlns="http://www.w3.org/2000/svg" p-id="6583" width="200" height="200"><path d="M620.807151 580.762458l7.551285-15.674637c19.79352-41.188827 11.441341-90.615419-20.82324-122.88-18.763799-18.763799-43.477095-29.518659-69.220112-31.120447l15.216983 15.216984c31.463687 31.463687 31.463687 82.720894 0 114.298994-31.463687 31.463687-82.720894 31.463687-114.298994 0l-15.216984-15.216983c1.716201 25.628603 12.471061 50.456313 31.120447 69.220111 32.264581 32.264581 81.691173 40.61676 122.88 20.823241l15.674637-7.551285 136.495196 136.495195c7.436872 7.436872 19.564693 7.436872 27.001564 0s7.436872-19.564693 0-27.001564L620.807151 580.762458zM512 0C229.284469 0 0 229.284469 0 512S229.284469 1024 512 1024 1024 794.715531 1024 512 794.715531 0 512 0z m75.169609 805.813631H334.544804c-45.193296 0-81.92-36.726704-81.92-81.92V296.101899c0-45.193296 36.726704-81.92 81.92-81.92h314.064805c45.193296 0 81.92 36.726704 81.92 81.92v97.823464c0 15.10257-12.242235 27.344804-27.344805 27.344805s-27.344804-12.242235-27.344804-27.344805v-97.823464c0-15.10257-12.242235-27.344804-27.344804-27.344804H334.544804c-15.10257 0-27.344804 12.242235-27.344804 27.344804v427.791732c0 15.10257 12.242235 27.344804 27.344804 27.344805h252.624805c15.10257 0 27.344804 12.242235 27.344804 27.344804-0.114413 14.988156-12.356648 27.230391-27.344804 27.230391z m204.8-26.887151L774.578771 761.535642l17.390838 17.390838c-13.271955 13.271955-30.777207 19.907933-48.282458 19.907933s-34.896089-6.635978-48.282458-19.907933l-112.582794-112.582793c-56.291397 19.679106-119.676425 5.72067-162.467039-37.069944-42.676201-42.676201-57.092291-107.09095-36.497877-164.068827l13.157542-36.497877 77.000224 77.000224c12.356648 12.356648 32.378994 12.356648 44.735642 0s12.356648-32.378994 0-44.735643l-77.000223-77.000223 36.497877-13.157542c56.977877-20.48 121.392626-6.178324 164.068827 36.497877 42.790615 42.790615 56.74905 106.175642 37.069944 162.467039l112.582793 112.582793c26.658324 26.658324 26.658324 70.021006 0 96.564916z" fill="#1A70CC" p-id="6584"></path></svg>
