<svg t="1614649079084" class="icon" viewBox="0 0 1024 1024" version="1.1" xmlns="http://www.w3.org/2000/svg" p-id="2685" width="200" height="200"><path d="M484.36736 680.05888c0-10.67008-0.19456-21.34528 0.09728-32.04608 0.14848-4.52608-2.048-6.35392-8.64256-6.26688-15.6672 0.22016-31.39584 0.19968-47.0784 0-6.30272-0.09216-8.96 1.38752-8.87296 6.11328 0.22528 21.61152 0.22528 43.24864 0.03072 64.83456-0.08192 4.3264 2.11968 5.79072 8.07936 5.7344 15.68256-0.2048 31.38048-0.34816 47.04256 0.01536 7.81824 0.2048 9.69216-2.02752 9.46176-7.10144-0.43008-10.42432-0.11776-20.87424-0.11776-31.2832zM490.9312 547.47648c0-10.66496-0.21504-21.38112 0.09728-32.04096 0.128-4.56192-2.06848-6.3744-8.64768-6.28736-15.6672 0.23552-31.39584 0.18432-47.0784 0-6.30272-0.09216-8.96 1.3824-8.89344 6.1184 0.24576 21.62176 0.24576 43.22816 0.03072 64.84992-0.06656 4.30592 2.13504 5.76512 8.09472 5.71392 15.68256-0.2048 31.38048-0.34816 47.04256 0.0512 7.81824 0.16896 9.69216-2.03776 9.48224-7.13728-0.45568-10.40896-0.128-20.85376-0.128-31.26784zM373.59616 680.05888c0-10.67008-0.1792-21.34528 0.09728-32.04608 0.128-4.52608-2.08384-6.35392-8.63232-6.26688-15.69792 0.22016-31.39584 0.19968-47.09888 0-6.31808-0.09216-8.93952 1.38752-8.88832 6.11328 0.24064 21.61152 0.24064 43.24864 0.03072 64.83456-0.0512 4.3264 2.11456 5.79072 8.07936 5.7344 15.68256-0.2048 31.39584-0.34816 47.06304 0.01536 7.8336 0.2048 9.69216-2.02752 9.47712-7.10144-0.4352-10.42432-0.128-20.87424-0.128-31.2832zM373.59616 547.47648c0-10.66496-0.1792-21.38112 0.09728-32.04096 0.128-4.56192-2.08384-6.3744-8.63232-6.28736-15.69792 0.23552-31.39584 0.18432-47.09888 0-6.31808-0.09216-8.93952 1.3824-8.88832 6.1184 0.24064 21.62176 0.24064 43.22816 0.03072 64.84992-0.0512 4.30592 2.11456 5.76512 8.07936 5.71392 15.68256-0.2048 31.39584-0.34816 47.06304 0.0512 7.8336 0.16896 9.69216-2.03776 9.47712-7.13728-0.4352-10.40896-0.128-20.85376-0.128-31.26784zM608.24576 680.05888c0.01536-10.67008-0.19456-21.34528 0.11264-32.04608 0.128-4.52608-2.06848-6.35392-8.66304-6.26688-15.6672 0.22016-31.36512 0.19968-47.0784 0-6.2976-0.09216-8.92416 1.38752-8.8576 6.11328 0.2304 21.61152 0.2304 43.24864 0 64.83456-0.01536 4.3264 2.13504 5.79072 8.09472 5.7344 15.69792-0.2048 31.41632-0.34816 47.06304 0.01536 7.81312 0.2048 9.69216-2.02752 9.46176-7.10144-0.44544-10.42432-0.13312-20.87424-0.13312-31.2832zM608.24576 547.47648c0.01536-10.66496-0.19456-21.38112 0.11264-32.04096 0.128-4.56192-2.06848-6.3744-8.66304-6.28736-15.6672 0.23552-31.36512 0.18432-47.0784 0-6.2976-0.09216-8.92416 1.3824-8.8576 6.1184 0.2304 21.62176 0.2304 43.22816 0 64.84992-0.01536 4.30592 2.13504 5.76512 8.09472 5.71392 15.69792-0.2048 31.41632-0.34816 47.06304 0.0512 7.81312 0.16896 9.69216-2.03776 9.46176-7.13728-0.44544-10.40896-0.13312-20.85376-0.13312-31.26784z" fill="#0144AA" p-id="2686"></path><path d="M513.2032 2.46272C231.13728 2.46272 2.45248 231.15264 2.45248 513.21856 2.45248 795.3152 231.13728 1024 513.2032 1024 795.30496 1024 1024 795.3152 1024 513.21856 1024 231.15264 795.30496 2.46272 513.2032 2.46272z m291.04128 818.96448H222.17728a27269.632 27269.632 0 0 0-12.19584-12.23168V475.648c4.51072-4.51584 8.27392-10.47552 13.66016-13.36832 61.06624-49.13152 85.43232-66.92352 154.34752-117.61152 14.592-7.71584 25.82528-0.82432 25.9072 15.89248 0.08192 22.8864 0.01536 45.7984 0.01536 70.00064 3.77856-1.51552 6.77376-2.53952 9.62048-3.83488 59.1616-40.9088 93.86496-60.3904 144.52736-95.3344 2.08384-0.94208 4.18304-1.93536 6.30272-2.816 14.21312-6.016 24.39168 0.48128 24.50432 16.02048 0.1792 25.728 0.06656 51.44576 0.06656 77.1584v10.48576c7.03488 0.41472 13.54752 0.78848 21.15584 1.22368 0.88064-8.40704 1.88928-16.86528 2.70336-25.33888 8.32-88.71936 16.6912-70.26176 24.98048-159.00672 2.66752-28.63616 19.34336-44.01152 48.18432-44.05248 24.4736-0.0512 29.80352-0.08192 54.23104 0.0256 27.16672 0.128 44.78464 16.99328 46.49472 44.18048l29.76256 559.90784c-4.05504 4.096-8.11008 8.17664-12.20096 12.24704z" fill="#0144AA" p-id="2687"></path></svg>
