<svg t="1621852343069" class="icon" viewBox="0 0 1024 1024" version="1.1" xmlns="http://www.w3.org/2000/svg" p-id="6356" width="64" height="64"><path d="M796.444444 924.444444v33.194667A66.360889 66.360889 0 0 1 730.083556 1024H293.916444A66.360889 66.360889 0 0 1 227.555556 957.639111V924.444444h-45.738667A124.928 124.928 0 0 1 56.888889 799.516444V124.928A124.928 124.928 0 0 1 181.816889 0h660.366222A124.928 124.928 0 0 1 967.111111 124.928v674.588444A124.928 124.928 0 0 1 842.183111 924.444444H796.444444zM181.816889 85.333333A39.594667 39.594667 0 0 0 142.222222 124.928v674.588444A39.594667 39.594667 0 0 0 181.816889 839.111111h660.366222A39.594667 39.594667 0 0 0 881.777778 799.516444V124.928A39.594667 39.594667 0 0 0 842.183111 85.333333H181.816889z m235.278222 502.144l-30.094222-46.165333-49.137778 97.28A28.444444 28.444444 0 0 1 312.476444 654.222222H227.555556a28.444444 28.444444 0 1 1 0-56.888889h67.413333l63.502222-125.724444c9.884444-19.569778 37.262222-21.077333 49.223111-2.702222l26.254222 40.248889 97.92-263.082667c9.984-26.823111 48.867556-23.751111 54.528 4.295111l28.700445 141.980444 26.211555-57.984c9.443556-20.906667 38.485333-22.599111 50.304-2.929777l41.102223 68.366222H796.444444a28.444444 28.444444 0 1 1 0 56.888889h-79.829333a28.444444 28.444444 0 0 1-24.376889-13.795556l-21.432889-35.655111-40.192 88.903111c-11.377778 25.173333-48.327111 20.992-53.802666-6.072889l-26.410667-130.702222-82.816 222.492445c-8.149333 21.888-37.731556 25.173333-50.488889 5.617777z" p-id="6357"></path></svg>
