<svg t="1621852447318" class="icon" viewBox="0 0 1024 1024" version="1.1" xmlns="http://www.w3.org/2000/svg" p-id="7657" width="64" height="64"><path d="M705 511.4c-24 0-43.5 19.5-43.5 43.5s19.5 43.5 43.5 43.5 43.5-19.5 43.5-43.5-19.5-43.5-43.5-43.5z m0-128c-24 0-43.5 19.5-43.5 43.5s19.5 43.5 43.5 43.5 43.5-19.5 43.5-43.5-19.5-43.5-43.5-43.5z m0 255.9c-24 0-43.5 19.5-43.5 43.5s19.5 43.5 43.5 43.5 43.5-19.5 43.5-43.5-19.5-43.5-43.5-43.5z m85.3-575.4H235.8c-35.3 0-64 28.6-64 64v660.8h42.7V149.2c0-23.6 19.1-42.7 42.7-42.7H769c23.6 0 42.7 19.1 42.7 42.7v725.1c0 23.6-19.1 42.7-42.7 42.7H257.1c-23.6 0-42.7-19.1-42.7-42.7v-84.5h-42.7v105.9c0 35.3 28.7 64 64 64h554.6c35.3 0 64-28.6 64-64V127.8c0-35.3-28.6-63.9-64-63.9zM577 598.4c24 0 43.5-19.5 43.5-43.5S601 511.4 577 511.4s-43.5 19.5-43.5 43.5 19.5 43.5 43.5 43.5z m0 255.9h127.4c24 0 43.5-19.5 43.5-43.5s-19.5-43.5-43.5-43.5H577c-24 0-43.5 19.5-43.5 43.5s19.5 43.5 43.5 43.5z m0-383.9c24 0 43.5-19.5 43.5-43.5S601 383.4 577 383.4s-43.5 19.5-43.5 43.5 19.5 43.5 43.5 43.5z m0 255.9c24 0 43.5-19.5 43.5-43.5S601 639.3 577 639.3s-43.5 19.5-43.5 43.5 19.5 43.5 43.5 43.5zM278.8 339.7h467.3V170.8H278.8v168.9z m42.5-128.2h384.3v86.1H321.3v-86.1z m-0.2 514.8c24 0 43.5-19.5 43.5-43.5s-19.5-43.5-43.5-43.5-43.5 19.5-43.5 43.5 19.5 43.5 43.5 43.5z m0-127.9c24 0 43.5-19.5 43.5-43.5s-19.5-43.5-43.5-43.5-43.5 19.5-43.5 43.5 19.5 43.5 43.5 43.5z m0 255.9c24 0 43.5-19.5 43.5-43.5s-19.5-43.5-43.5-43.5-43.5 19.5-43.5 43.5 19.5 43.5 43.5 43.5z m0-383.9c24 0 43.5-19.5 43.5-43.5s-19.5-43.5-43.5-43.5-43.5 19.5-43.5 43.5 19.5 43.5 43.5 43.5z m128 168.9c-24 0-43.5 19.5-43.5 43.5s19.5 43.5 43.5 43.5 43.5-19.5 43.5-43.5-19.5-43.5-43.5-43.5z m0 128c-24 0-43.5 19.5-43.5 43.5s19.5 43.5 43.5 43.5 43.5-19.5 43.5-43.5-19.5-43.5-43.5-43.5z m0-255.9c-24 0-43.5 19.5-43.5 43.5s19.5 43.5 43.5 43.5 43.5-19.5 43.5-43.5-19.5-43.5-43.5-43.5z m0-128c-24 0-43.5 19.5-43.5 43.5s19.5 43.5 43.5 43.5 43.5-19.5 43.5-43.5-19.5-43.5-43.5-43.5z" p-id="7658"></path></svg>
