<svg t="1621852095340" class="icon" viewBox="0 0 1024 1024" version="1.1" xmlns="http://www.w3.org/2000/svg" p-id="4512" width="64" height="64"><path d="M200.641 313.809h77.936v77.934c0 10.763 8.721 19.486 19.482 19.486s19.484-8.723 19.484-19.486v-77.934h77.934c10.763 0 19.486-8.723 19.486-19.482 0-10.763-8.723-19.484-19.486-19.484h-77.934v-77.936c0-10.761-8.723-19.484-19.484-19.484-10.761 0-19.482 8.723-19.482 19.484v77.936h-77.936c-10.759 0-19.484 8.721-19.484 19.484 0 10.759 8.725 19.482 19.484 19.482z m623.474-38.965H629.281c-10.761 0-19.486 8.721-19.486 19.484 0 10.759 8.725 19.482 19.486 19.482h194.834c10.763 0 19.486-8.723 19.486-19.482-0.001-10.763-8.724-19.484-19.486-19.484zM269.67 721.747l-62.797 62.797c-7.608 7.608-7.608 19.945 0 27.554s19.945 7.608 27.554 0l62.797-62.797 60.587 60.587c7.61 7.608 19.945 7.608 27.556 0.002 7.608-7.61 7.606-19.947-0.002-27.556l-60.587-60.587 61.197-61.197c7.608-7.61 7.608-19.945 0-27.554s-19.945-7.608-27.554 0l-61.197 61.197-63.404-63.404c-7.61-7.608-19.947-7.608-27.556 0-7.606 7.606-7.606 19.945 0.002 27.554l63.404 63.404zM882.565 60.525H142.19c-43.041 0-77.932 34.891-77.932 77.934v740.373c0 43.043 34.891 77.934 77.932 77.934h740.375c43.043 0 77.935-34.891 77.935-77.934V138.459c0-43.043-34.892-77.934-77.935-77.934zM492.896 917.802H142.19c-21.52 0-38.967-17.448-38.967-38.969V528.128h389.673v389.674z m0-428.639H103.223V138.459c0-21.522 17.448-38.969 38.967-38.969h350.706v389.673z m428.638 389.67c0 21.522-17.448 38.969-38.969 38.969H531.861V528.128h389.673v350.705z m0-389.67H531.861V99.49h350.704c21.522 0 38.969 17.448 38.969 38.969v350.704zM629.281 800.9h194.834c10.763 0 19.486-8.725 19.486-19.484 0-10.761-8.723-19.484-19.486-19.484H629.281c-10.761 0-19.486 8.723-19.486 19.484 0 10.76 8.725 19.484 19.486 19.484z m0-116.903h194.834c10.763 0 19.486-8.723 19.486-19.484 0-10.759-8.723-19.482-19.486-19.482H629.281c-10.761 0-19.486 8.723-19.486 19.482 0 10.761 8.725 19.484 19.486 19.484z" p-id="4513"></path></svg>
