<svg t="1621852207833" class="icon" viewBox="0 0 1024 1024" version="1.1" xmlns="http://www.w3.org/2000/svg" p-id="4702" width="64" height="64"><path d="M46.08 866.304c-3.584 0-6.656-0.512-10.24-2.048-12.8-5.632-18.944-20.48-13.312-33.792l221.696-517.12c4.096-10.24 14.336-16.384 25.6-15.36 10.752 1.024 19.968 8.192 23.04 18.944L353.28 545.28c18.944-44.544 45.056-105.472 71.168-165.888 29.696-68.096 53.76-122.88 72.192-161.792 34.816-74.752 43.008-90.112 66.048-87.04 12.288 2.048 20.992 11.776 22.528 24.064 1.536 16.896 31.232 128 62.976 240.128l130.56-181.248c5.12-7.168 13.824-11.264 22.528-10.752 8.704 0.512 16.896 6.144 20.992 13.824l189.952 372.736c6.656 12.8 1.536 28.16-11.264 34.304-12.8 6.656-28.16 1.536-34.304-11.264l-171.008-335.36-136.704 189.952c-5.632 8.192-15.36 11.776-25.088 10.24-9.728-1.536-17.408-8.704-20.48-17.92-9.216-31.744-44.032-153.6-64.512-233.472-39.424 83.968-112.64 252.928-177.152 407.552-4.096 10.24-14.336 16.384-25.6 15.872-10.752-0.512-19.968-8.192-23.04-18.944L262.144 401.92l-192.512 448.512c-4.096 10.24-13.824 15.872-23.552 15.872z" p-id="4703"></path><path d="M722.944 839.68c-61.952 0-112.64-50.688-112.64-112.64s50.688-112.64 112.64-112.64 112.64 50.688 112.64 112.64-50.688 112.64-112.64 112.64z m0-174.08c-33.792 0-61.44 27.648-61.44 61.44s27.648 61.44 61.44 61.44 61.44-27.648 61.44-61.44-27.648-61.44-61.44-61.44z" p-id="4704"></path><path d="M882.176 752.64h-60.928c-14.336 0-25.6-11.264-25.6-25.6s11.264-25.6 25.6-25.6h60.928c14.336 0 25.6 11.264 25.6 25.6s-11.264 25.6-25.6 25.6zM622.592 752.64h-65.024c-14.336 0-25.6-11.264-25.6-25.6s11.264-25.6 25.6-25.6h65.024c14.336 0 25.6 11.264 25.6 25.6s-11.264 25.6-25.6 25.6zM719.872 662.016c-14.336 0-25.6-11.264-25.6-25.6v-71.68c0-14.336 11.264-25.6 25.6-25.6s25.6 11.264 25.6 25.6v71.68c0 14.336-11.264 25.6-25.6 25.6zM723.968 914.944c-14.336 0-25.6-11.264-25.6-25.6V814.08c0-14.336 11.264-25.6 25.6-25.6s25.6 11.264 25.6 25.6v75.264c0 14.336-11.264 25.6-25.6 25.6z" p-id="4705"></path><path d="M988.16 1008.64H46.08c-14.336 0-25.6-11.264-25.6-25.6V40.96c0-14.336 11.264-25.6 25.6-25.6h942.08c14.336 0 25.6 11.264 25.6 25.6v942.08c0 14.336-11.264 25.6-25.6 25.6zM71.68 957.44h890.88V66.56H71.68v890.88z" p-id="4706"></path></svg>
