<svg t="1621852057965" class="icon" viewBox="0 0 1024 1024" version="1.1" xmlns="http://www.w3.org/2000/svg" p-id="3406" width="64" height="64"><path d="M511.8 511.8V63.3c-247.7 0-448.5 200.8-448.5 448.5s200.8 448.5 448.5 448.5 448.5-200.8 448.5-448.5H511.8z m271.9 271.9c-35.3 35.3-76.5 63.1-122.2 82.4-47.4 20-97.7 30.2-149.6 30.2s-102.3-10.2-149.6-30.2c-45.8-19.4-86.9-47.1-122.2-82.4-35.3-35.3-63.1-76.5-82.4-122.2-20-47.4-30.2-97.7-30.2-149.6 0-51.9 10.2-102.3 30.2-149.6 19.4-45.8 47.1-86.9 82.4-122.2 35.3-35.3 76.5-63.1 122.2-82.4 27.6-11.7 56.3-20 85.6-24.9V512c0 35.3 28.7 64 64 64h379.2c-4.9 29.4-13.2 58-24.9 85.6-19.4 45.7-47.1 86.8-82.5 122.1zM603.8 440.1h351.8c0-208.1-168.7-376.8-376.8-376.8v351.8c0 13.8 11.2 25 25 25z m39-306.2c19.7 4.1 39 10.1 57.7 18 37.2 15.7 70.7 38.3 99.4 67.1 28.7 28.7 51.3 62.2 67.1 99.4 7.9 18.7 13.9 38 18 57.7H642.8V133.9z" p-id="3407"></path></svg>
