<svg t="1608101500047" class="icon" viewBox="0 0 1024 1024" version="1.1" xmlns="http://www.w3.org/2000/svg" p-id="3819" width="64" height="64"><path d="M106.666667 192a21.333333 21.333333 0 1 0 0 42.666667h85.333333a21.333333 21.333333 0 0 0 0-42.666667H106.666667z m0 298.666667a21.333333 21.333333 0 0 0 0 42.666666h85.333333a21.333333 21.333333 0 0 0 0-42.666666H106.666667z m0 298.666666a21.333333 21.333333 0 0 0 0 42.666667h85.333333a21.333333 21.333333 0 0 0 0-42.666667H106.666667zM320 192a21.333333 21.333333 0 0 0 0 42.666667h597.333333a21.333333 21.333333 0 0 0 0-42.666667H320z m0 298.666667a21.333333 21.333333 0 0 0 0 42.666666h597.333333a21.333333 21.333333 0 0 0 0-42.666666H320z m0 298.666666a21.333333 21.333333 0 0 0 0 42.666667h597.333333a21.333333 21.333333 0 0 0 0-42.666667H320z" fill="#707070" p-id="3820"></path></svg>
