<svg t="1604891033297" class="icon" viewBox="0 0 1024 1024" version="1.1" xmlns="http://www.w3.org/2000/svg" p-id="6740" width="200" height="200"><path d="M320 539.584a32 32 0 0 0-32-32h-64a32 32 0 0 0 0 64h64a32 32 0 0 0 32-32zM768 539.584a32 32 0 0 0 32 32h32a32 32 0 0 0 0-64h-32a32 32 0 0 0-32 32zM832 635.584h-192a32 32 0 0 0 0 64h192a32 32 0 0 0 0-64z" fill="" p-id="6741"></path><path d="M96 827.584v-448h232.384l36.928-64H96a64 64 0 0 0-64 64v448a64 64 0 0 0 64 64h46.528l-17.088-9.92 31.232-54.144H96zM928 315.584h-8.384l-36.928 64h45.312v448H526.208l-36.928 64H928a64 64 0 0 0 64-64v-448a64 64 0 0 0-64-64zM790.272 409.536a190.464 190.464 0 0 0 20.864-135.744l-12.224-7.04-80 138.56-3.968-2.304c-39.936 40.64-103.296 51.2-154.944 21.44a127.68 127.68 0 0 1-58.944-144.896l-3.904-2.24 16-27.712 64-110.784-12.288-7.168A190.528 190.528 0 0 0 457.728 217.6a191.36 191.36 0 0 0 0.448 191.232l-205.312 355.648a63.936 63.936 0 0 0 23.424 87.36l55.424 32a64 64 0 0 0 87.424-23.36l205.312-355.648a191.232 191.232 0 0 0 165.824-95.296z m-426.56 418.88l-55.424-32 193.6-335.36c8.192 6.784 16.64 13.312 26.112 18.816 9.472 5.504 19.392 9.536 29.376 13.248l-193.664 335.296z" fill="" p-id="6742"></path></svg>
