<svg t="1603878259769" class="icon" viewBox="0 0 1024 1024" version="1.1" xmlns="http://www.w3.org/2000/svg" p-id="17092" width="200" height="200"><path d="M819.9 524.9c-41-41-95.5-63.6-153.5-63.6s-112.6 22.6-153.5 63.6c-41 41-63.6 95.5-63.6 153.5s22.6 112.6 63.6 153.5c41 41 95.5 63.6 153.5 63.6s112.5-22.7 153.5-63.6c41-41 63.6-95.5 63.6-153.5 0.1-57.9-22.6-112.4-63.6-153.5zM666.4 844.5c-91.6 0-166.1-74.5-166.1-166.1s74.5-166.1 166.1-166.1 166.1 74.5 166.1 166.1S758 844.5 666.4 844.5z" fill="" p-id="17093"></path><path d="M632.5 615.2c-10-10-26.1-10-36.1 0s-10 26.1 0 36.1l90.3 90.3c10 10 26.1 10 36.1 0s10-26.1 0-36.1l-90.3-90.3zM423.7 793.4H244.8c-14.1 0-25.6-11.5-25.6-25.5V404.2h511V256.9c0-42.2-34.4-76.6-76.6-76.6H244.8c-42.2 0-76.6 34.4-76.6 76.6v511c0 42.2 34.4 76.6 76.6 76.6h178.8c14.1 0 25.6-11.4 25.6-25.6 0-14-11.4-25.5-25.5-25.5z m-178.9-562h408.8c14.1 0 25.6 11.5 25.6 25.6v96.2H219.3V257c0-14.1 11.5-25.6 25.5-25.6z" fill="" p-id="17094"></path></svg>
