<svg t="1614138335050" class="icon" viewBox="0 0 1024 1024" version="1.1" xmlns="http://www.w3.org/2000/svg" p-id="2702" width="200" height="200"><path d="M661.824 541.2608c97.792 0 177.0496-80.2304 177.0496-179.2s-79.2576-179.2-177.024-179.2c-97.792 0-177.0496 80.2304-177.0496 179.2s79.2576 179.2 177.0496 179.2z" fill="#1F56A8" p-id="2703"></path><path d="M740.9536 555.8784h-151.0144c-125.8496 0.128-227.84 101.7856-227.968 227.2256v186.9568l12.6464 3.9936A1041.92 1041.92 0 0 0 685.0688 1024c167.68 0 264.7808-47.744 270.7712-50.6112l11.776-6.1952h1.3056V783.104c-0.1024-125.44-102.1184-227.0976-227.968-227.2256zM350.912 358.4a174.3872 174.3872 0 0 0 94.464-27.7248 222.464 222.464 0 0 1 82.7904-141.5168v-10.2912C528.1664 80.0768 448.9088 0 351.1424 0c-97.792 0-177.0496 80.0768-177.0496 178.8672s79.2576 178.8672 177.0496 178.8672l-0.256 0.6656z" fill="#4A8DF0" p-id="2704"></path><path d="M513.7024 525.1328a220.2112 220.2112 0 0 1-67.712-152.1152H278.72c-125.3888 0.128-227.072 101.9904-227.456 227.84v187.8784l12.6208 3.9936a1060.864 1060.864 0 0 0 256.6656 48.4096v-55.9616c0.128-119.8592 78.6688-225.4336 193.152-259.584v-0.4608z" fill="#1F56A8" p-id="2705"></path></svg>
