<svg t="1603878733923" class="icon" viewBox="0 0 1024 1024" version="1.1" xmlns="http://www.w3.org/2000/svg" p-id="21292" width="200" height="200"><path d="M524.56581566 799.21864348c0-34.70558609 28.12349218-62.82907825 62.82907825-62.82907827h50.86163479c36.5007026-19.14790957 38.89419131-70.60791652 37.69744695-96.93629217-39.49256348-30.51698087-63.42745043-77.78838261-63.42745044-128.05164521 0-89.15745391 72.40303305-156.1751374 162.15885913-156.17513739 4.78697739 0 10.17232696 0 14.95930436 0.59837216V165.5425113c0-31.71372522-25.73000348-57.44372869-57.44372869-57.4437287H219.39600696c-31.71372522 0-57.44372869 25.73000348-57.4437287 57.4437287v700.69381565c0 31.71372522 25.73000348 57.44372869 57.4437287 57.4437287h305.1698087V799.21864348zM292.39741218 245.12601043h307.56329739c14.95930434 0 26.92674782 11.96744348 26.92674783 26.92674784s-11.96744348 26.92674782-26.92674783 26.92674782H292.39741218c-14.95930434 0-26.92674782-11.96744348-26.92674782-26.92674782s11.96744348-26.92674782 26.92674782-26.92674784zM422.24417391 576.02582261H292.39741218c-14.95930434 0-26.92674782-11.96744348-26.92674782-27.52512001 0-14.95930434 11.96744348-26.92674782 26.92674782-27.52512H422.24417391c14.95930434 0 26.92674782 11.96744348 26.92674784 27.52512 0 14.95930434-11.96744348 27.52511999-26.92674784 27.52512001zM492.25371826 437.20347826H292.39741218c-14.95930434 0-26.92674782-11.96744348-26.92674782-26.92674783s11.96744348-26.92674782 26.92674782-26.92674782h199.85630608c14.95930434 0 26.92674782 11.96744348 26.92674783 26.92674782S507.21302261 437.20347826 492.25371826 437.20347826z" fill="#dbdbdb" p-id="21293"></path><path d="M612.14475594 921.93212521c-6.37801044 0-11.01656347-5.21837217-11.01656348-11.01656347v-104.94726261c0-6.37801044 5.21837217-11.01656347 11.01656348-11.01656348h50.44426435l4.05873391-1.73945739c88.71232695-35.9487861 78.27558261-147.85387826 75.37648695-169.88700521l-1.73945738-11.59638261-9.85692522-5.79819131c-28.99095653-17.39457391-46.96534957-48.70480696-46.96534957-81.75449738 0-52.76354088 42.90661565-95.09033739 95.09033739-95.0903374h6.95782957c41.16715826 2.89909565 76.53612522 33.04969043 85.81323131 73.63702957 8.69728695 38.84788174-6.95782957 78.85540174-39.42770088 100.88852869l-9.27710608 5.79819129-1.15963828 11.01656349C817.40072812 652.31622956 810.44289854 758.42313044 896.25612985 793.21227826l4.63855304 1.73945739h45.22589219c6.37801044 0 11.01656347 5.21837217 11.01656347 11.01656348v103.78762435c0 11.01656347-4.0587339 12.17620175-9.2771061 12.17620173H612.14475594z" fill="#dbdbdb" p-id="21294"></path></svg>
