<svg t="1614053068035" class="icon" viewBox="0 0 1024 1024" version="1.1" xmlns="http://www.w3.org/2000/svg" p-id="10385" width="200" height="200"><path d="M944.2 186.7c-1.4 0-9.4-61.3-42.6-91.6-33.4-30.3-100.6-30.6-102-30.6-203.3 0-393.4-0.4-596.6 0-13.6 0-27.2 2-40.3 5.9-51.6 15.8-83.9 61-83.9 116.3v624l0.1 8.9c1.3 41.5 16.4 86.4 50.4 112.6 23.9 18.4 51.4 27.3 81.9 27.3h733v-3.6c0.6 0 1-21.9 1-65.9-19.1-11-30.9-31.2-31-53.2 0-22.8 12.5-42.6 31-53.3l-1-596.8z m-74.7 712.1H202.6c-34.1 1-62.7-25.8-63.7-59.9-1-34.1 25.8-62.7 59.9-63.7H869.5c-10.6 18.4-17.2 39.1-17.2 61.8 0 22.6 6.6 43.4 17.2 61.8zM688.9 347.3H314.5c-17.4 0-31.4-9.2-31.4-20.6 0-11.4 14-20.7 31.4-20.7h374.4c17.3 0 31.3 9.2 31.3 20.7 0 11.4-14 20.6-31.4 20.6h0.1z m0 186.2H314.5c-17.4 0-31.4-9.2-31.4-20.7 0-11.4 14-20.6 31.4-20.6h374.4c17.3 0 31.3 9.2 31.3 20.6 0 11.4-14 20.7-31.4 20.7h0.1z" fill="#9984e4" p-id="10386"></path></svg>
