<svg t="1614052833424" class="icon" viewBox="0 0 1024 1024" version="1.1" xmlns="http://www.w3.org/2000/svg" p-id="7188" width="200" height="200"><path d="M85.333333 700.501333l144.554667-102.314666a42.666667 42.666667 0 1 1 49.322667 69.674666l-190.72 134.954667c-1.024 0.725333-2.090667 1.408-3.157334 2.048v126.72h465.152l-191.104-159.402667a52.053333 52.053333 0 0 1-7.808-70.442666 45.866667 45.866667 0 0 1 66.730667-8.277334l108.970667 90.88c1.493333-1.28 3.114667-2.474667 4.821333-3.584l337.621333-218.965333H810.666667V469.333333h128c47.146667 0 85.333333 41.386667 85.333333 92.458667v369.749333C1024 982.613333 985.813333 1024 938.666667 1024H85.333333c-47.146667 0-85.333333-41.386667-85.333333-92.458667v-369.749333C0 510.72 38.186667 469.333333 85.333333 469.333333h128v92.458667H85.333333v138.709333z m618.410667 231.04H938.666667v-312.746666l-343.125334 222.506666 108.202667 90.24z" fill="#98B8FF" p-id="7189"></path><path d="M356.394667 459.306667a256 256 0 1 1 317.866666-5.290667L512 607.701333l-155.605333-148.394666zM512 341.333333a85.333333 85.333333 0 1 0 0-170.666666 85.333333 85.333333 0 0 0 0 170.666666z" fill="#437DFF" p-id="7190"></path></svg>
