<svg t="1614052593005" class="icon" viewBox="0 0 1024 1024" version="1.1" xmlns="http://www.w3.org/2000/svg" p-id="3448" width="200" height="200"><path d="M559.9 631.3h-75.2v-39h75.2c13 0 23.3-10.2 23.3-23.3 0-13-10.2-23.3-23.3-23.3h-37.7l36.8-43.2c8.4-9.8 6.9-24.6-2.8-32.6-9.8-8.4-24.6-6.9-32.6 2.8L462.3 545c-0.3 0-0.6-0.2-1-0.2-0.1 0-0.2 0.1-0.4 0.1L399 472.8c-8.4-9.8-23.3-10.7-33-2.3-9.8 8.4-10.7 23.3-2.3 33l36.4 42.2h-37.8c-13 0-23.3 10.2-23.3 23.3 0 13.1 10.2 23.3 23.3 23.3h75.8v39h-75.8c-13 0-23.3 10.2-23.3 23.3 0 13.1 10.2 23.3 23.3 23.3h75.8v87.8c0 13 10.2 23.3 23.3 23.3 13.1-0.1 23.3-10.3 23.3-23.4v-87.7h75.2c13-0.1 23.3-10.3 23.3-23.3-0.1-13.1-10.3-23.3-23.3-23.3z" fill="#A1AFFF" p-id="3449"></path><path d="M802.9 922H119.3c-29.8 0-54.1-24.3-54.1-54.1V385.5c0-29.8 24.3-54.1 54.1-54.1H803c29.8 0 54.1 24.3 54.1 54.1v482.4c-0.1 29.8-24.4 54.1-54.2 54.1z m-672.8-64.9h662V396.3h-662v460.8zM681.1 290.9h-440c-17.9 0-32.5-14.5-32.5-32.5 0-17.9 14.5-32.5 32.5-32.5h440c17.9 0 32.5 14.5 32.5 32.5-0.1 17.9-14.6 32.5-32.5 32.5zM557.5 197.1H364.6c-17.9 0-32.5-14.5-32.5-32.5 0-17.9 14.5-32.5 32.5-32.5h192.9c17.9 0 32.5 14.5 32.5 32.5s-14.5 32.5-32.5 32.5z" fill="#4A5FE2" p-id="3450"></path></svg>
