<svg t="1604890532151" class="icon" viewBox="0 0 1024 1024" version="1.1" xmlns="http://www.w3.org/2000/svg" p-id="2773" width="200" height="200"><path d="M1023.645875 138.067416V878.610827c-45.630235 115.840654-88.776302 145.258427-213.899897 145.258427H173.668347A171.407559 171.407559 0 0 1 0.430349 847.362615v-679.877426c0-37.65475 8.629213-73.217569 34.386109-97.797753C63.319011 41.838611 99.535559 22.749745 132.483465 0h753.094995c71.517875 20.527068 115.186925 68.902962 138.067415 138.067416zM564.597867 808.531154c-116.755873-70.733401-126.300306-174.6762-98.974464-243.971399a190.757916 190.757916 0 0 1 78.447396-94.529111c52.298264-32.294178 107.472932-35.170582 166.962206-17.258427V215.076609H221.259767v593.454545z m78.447396-16.735444a158.463739 158.463739 0 0 0 161.209397-156.894791 160.032686 160.032686 0 1 0-320.065373-5.229826 158.071502 158.071502 0 0 0 158.594484 162.124617z" fill="#D68512" p-id="2774"></path><path d="M267.020748 338.631256h290.778345l5.229826 8.106231c-6.537283 4.837589-13.074566 13.989785-19.611849 14.120531q-131.660878 1.438202-263.321756 0c-6.275792 0-12.420838-9.805924-18.565884-15.03575zM261.921667 456.433095c16.86619-23.011236 219.521961-22.749745 235.342186 0zM260.744956 567.828396c23.011236-17.258427 110.21859-17.650664 136.498468 0zM623.433414 536.057201c17.78141-6.668029 26.149132-2.353422 25.364658 17.127682-0.784474 36.216547 0 72.563841 0 112.702757 27.848825 0 52.298264-0.784474 77.270684 0 6.145046 0 12.028601 6.92952 18.173646 10.721144-5.360572 3.530133-10.590398 10.067416-15.95097 10.198162-34.255363 0.91522-68.510725 0-104.596527 0z" fill="#DB942F" p-id="2775"></path></svg>
