<svg t="1614227092009" class="icon" viewBox="0 0 1024 1024" version="1.1" xmlns="http://www.w3.org/2000/svg" p-id="2713" width="200" height="200"><path d="M883.341 658.766l-217.724 226.12c-58.339 49.896-131.355 67.917-189.209 0l-339.37-339.462v0.128l-0.784-0.884-16.605-19.863-2.565-4.023a123.616 123.616 0 0 1-19.959-67.949l0.132-230.367C97.698 151.951 143.694 99.365 214.21 98.8l237.075-0.132a125.96 125.96 0 0 1 68.174 19.734l2.121 1.237 17.265 13.782c0.888 0.89 1.897 1.581 2.789 2.374l-0.223 0.22 341.934 341.934c63.935 60.157 38.701 142.077-0.004 180.817z m-46.466-136.002L496.622 184.137l-0.121 0.124a60.877 60.877 0 0 0-44.107-18.279l-230.254 0.062c-34.396 0.35-57.323 24.852-57.739 59.245v228.714a61.106 61.106 0 0 0 18.193 44.018v0.12l338.62 338.623a62.13 62.13 0 0 0 43.956 18.209 62.143 62.143 0 0 0 43.949-18.209l227.757-226.127a62.11 62.11 0 0 0-0.001-87.873z" fill="#1296DB" p-id="2714"></path><path d="M319.002 383.995c-35.017-0.029-63.386-28.437-63.359-63.45 0.029-35.022 28.437-63.386 63.45-63.358 35.017 0.024 63.386 28.432 63.359 63.454-0.028 35.014-28.436 63.374-63.45 63.354z" fill="#1296DB" p-id="2715"></path></svg>
