<svg t="1617938774554" class="icon" viewBox="0 0 1024 1024" version="1.1" xmlns="http://www.w3.org/2000/svg" p-id="7450" width="64" height="64"><path d="M192 96A96 96 0 0 0 96 192v640A96 96 0 0 0 192 928h640a96 96 0 0 0 96-96V192A96 96 0 0 0 832 96H192zM192 0h640a192 192 0 0 1 192 192v640a192 192 0 0 1-192 192H192a192 192 0 0 1-192-192V192a192 192 0 0 1 192-192z" fill="#727484" p-id="7451"></path><path d="M747.776 684.672a225.792 225.792 0 0 0-73.984-38.4 950.976 950.976 0 0 1-69.376-25.792c-23.872-9.6-28.48-30.976-16.96-53.12a56.32 56.32 0 0 1 15.424-17.728c17.088-13.952 29.44-32.448 35.456-53.12a57.92 57.92 0 0 1 21.568-30.976c20.032-12.544 23.936-32.448 21.632-53.12a14.784 14.784 0 0 0-11.584-16.192c-13.12-3.712-13.12-12.544-15.36-20.672a145.472 145.472 0 0 0-3.904-17.728c-9.984-57.088-60.544-99.648-120.96-101.76-65.536-1.472-119.488 38.336-131.072 98.816l-4.608 28.8c1.536 3.648 0 8.064-6.912 9.6-11.52 2.944-15.424 12.48-16.96 22.08a43.776 43.776 0 0 0 33.92 48c57.792 17.664 84.736 58.24 90.88 114.304 5.44 54.592 1.6 108.48 3.84 163.072 1.6 19.2 8.512 27.264 28.544 27.264h188.8c21.632 0 43.968-12.544 48.576-27.264a47.552 47.552 0 0 0-16.96-56.064z" fill="#68A2FD" p-id="7452"></path><path d="M455.68 609.92c-6.912 0-9.984-1.536-9.984-10.368V559.36c-3.84-44.16-26.752-72.192-61.952-75.392-45.12-4.032-74.944 17.664-85.696 63.36a123.84 123.84 0 0 0-1.536 47.36c1.536 13.632-3.84 17.6-15.296 16-19.84 0-25.216 5.632-25.216 24.896v109.888c0 19.2 3.84 22.464 21.44 22.464h180.48c21.44 0 25.28-4.032 25.28-26.496V638.08c1.536-24.064-0.768-28.032-27.52-28.032z m-39.808-1.536c-15.296 5.568-32.128 0-43.584 1.6h-15.36c-35.2 0-35.2 0-35.2-36.928-0.64-14.848 3.392-29.504 11.52-41.728 18.368-26.432 60.416-20.8 73.472 8.832 12.16 20.864 9.152 44.16 9.152 68.224z" fill="#68A2FD" p-id="7453"></path></svg>