<svg t="1603878480077" class="icon" viewBox="0 0 1024 1024" version="1.1" xmlns="http://www.w3.org/2000/svg" p-id="17546" width="200" height="200"><path d="M317.15377 354.322479A170.331895 170.331895 0 0 0 331.615912 401.726167a160.690467 160.690467 0 0 0 26.112201 40.172617 146.228325 146.228325 0 0 0 35.753629 28.522558 131.766183 131.766183 0 0 0 35.753629 14.060416v69.0969a27.317379 27.317379 0 0 0 54.233032 0v-68.293448a195.238917 195.238917 0 0 0 40.172617-8.837976 135.783444 135.783444 0 0 0 40.172617-21.291487 108.867791 108.867791 0 0 0 29.32601-34.950176 105.252256 105.252256 0 0 0 11.248333-50.215771A90.388388 90.388388 0 0 0 581.489588 312.944684a110.474696 110.474696 0 0 0-20.889761-20.488034 222.556297 222.556297 0 0 0-25.308748-16.470773c-8.837976-4.820714-18.479404-9.641428-28.120832-14.060416l-24.907022-10.846607V122.928207A73.917615 73.917615 0 0 1 541.316971 175.554335v3.615536a26.915653 26.915653 0 0 0 53.429581 0 26.112201 26.112201 0 0 0-2.410357-10.846607 120.51785 120.51785 0 0 0-14.462142-38.163986 120.51785 120.51785 0 0 0-26.513927-30.932915 120.51785 120.51785 0 0 0-33.744998-18.88113 160.690467 160.690467 0 0 0-34.146725-8.436249V26.915653a27.317379 27.317379 0 0 0-54.233032 0v44.189879a148.638682 148.638682 0 0 0-35.351903 9.239701 126.945469 126.945469 0 0 0-35.351903 22.09494 102.841899 102.841899 0 0 0-24.10357 32.138093 92.397018 92.397018 0 0 0-8.837975 40.172617 88.379757 88.379757 0 0 0 9.641428 40.172616 112.081601 112.081601 0 0 0 25.308748 31.334641 173.94743 173.94743 0 0 0 34.950177 23.701844c10.846607 5.624166 22.094939 10.846607 33.744998 16.069047v139.800706a73.114162 73.114162 0 0 1-14.462142-7.231071 87.174578 87.174578 0 0 1-19.282856-16.872499A102.841899 102.841899 0 0 1 380.626505 380.43468a125.74029 125.74029 0 0 1-8.43625-28.120831v-5.222441a27.317379 27.317379 0 0 0-54.634759 0z m166.716359-42.984699L501.144355 321.380934a150.647313 150.647313 0 0 1 23.701844 15.265594 77.934876 77.934876 0 0 1 16.069046 17.274225 32.138093 32.138093 0 0 1 5.624167 18.077678 53.42958 53.42958 0 0 1-5.222441 21.693213 60.258925 60.258925 0 0 1-14.060415 18.88113 75.524519 75.524519 0 0 1-22.09494 14.060415 96.012554 96.012554 0 0 1-22.898391 6.427619z m-68.293448-88.781483a98.824637 98.824637 0 0 1-18.88113-13.65869 54.634759 54.634759 0 0 1-12.051785-16.069047 43.788152 43.788152 0 0 1-4.017261-19.282856 40.172617 40.172617 0 0 1 3.615535-17.274225 47.403688 47.403688 0 0 1 11.248333-14.863868 71.105532 71.105532 0 0 1 18.479403-12.051785 87.174578 87.174578 0 0 1 15.667321-5.22244v105.653982z m492.516281 271.165162l-83.157317-80.345233a52.224402 52.224402 0 0 0-37.762259-15.667321 51.822676 51.822676 0 0 0-38.163986 15.667321l-321.380934 318.167124-153.05767-153.459396a59.455473 59.455473 0 0 0-38.163985-15.66732 59.857199 59.857199 0 0 0-40.172617 15.66732l-80.345234 82.353865a52.224402 52.224402 0 0 0 0 75.524519l273.173794 271.566889a52.224402 52.224402 0 0 0 38.163986 16.069047 53.831306 53.831306 0 0 0 40.172617-16.069047l441.898783-437.881522a51.019223 51.019223 0 0 0 15.265595-37.76226 52.626128 52.626128 0 0 0-16.470773-38.163986z m-482.071401 476.447235l-272.772067-271.566889 83.157317-80.345234 190.418203 188.811299 361.55355-355.527658 80.345234 82.353864z" p-id="17547" fill="#1AAD19"></path></svg>
