<svg t="1603878007246" class="icon" viewBox="0 0 1024 1024" version="1.1" xmlns="http://www.w3.org/2000/svg" p-id="13727" width="200" height="200"><path d="M640 275.2H192c-12.8 0-19.2-6.4-19.2-19.2s6.4-19.2 19.2-19.2h448c12.8 0 19.2 6.4 19.2 19.2s-6.4 19.2-19.2 19.2zM640 435.2H192c-12.8 0-19.2-6.4-19.2-19.2s6.4-19.2 19.2-19.2h448c12.8 0 19.2 6.4 19.2 19.2s-6.4 19.2-19.2 19.2z" fill="#f4ea2a" p-id="13728"></path><path d="M480 960H217.6c-83.2 0-147.2-57.6-147.2-128V192c0-70.4 64-128 147.2-128h512c83.2 0 147.2 57.6 147.2 128v204.8c0 12.8-6.4 19.2-19.2 19.2s-25.6-6.4-25.6-19.2V192c0-51.2-51.2-89.6-108.8-89.6h-512c-57.6 0-108.8 38.4-108.8 89.6v640c0 51.2 51.2 89.6 108.8 89.6h262.4c12.8 0 19.2 6.4 19.2 19.2s-6.4 19.2-12.8 19.2z" fill="#f4ea2a" p-id="13729"></path><path d="M416 819.2c-51.2 0-51.2-64-51.2-115.2 0-25.6 0-76.8-12.8-76.8-19.2 0-19.2 6.4-32 32-6.4 25.6-19.2 64-64 64-57.6 0-64-51.2-64-83.2 0-19.2-6.4-38.4-12.8-44.8-6.4-6.4-6.4-19.2 0-25.6s19.2-6.4 25.6 0c19.2 19.2 19.2 44.8 25.6 70.4 6.4 44.8 6.4 51.2 25.6 51.2 19.2 0 19.2-6.4 32-32 6.4-25.6 19.2-64 64-64 51.2 0 51.2 64 51.2 115.2 0 25.6 0 76.8 12.8 76.8 19.2 0 32-44.8 44.8-83.2 19.2-51.2 38.4-108.8 83.2-108.8 83.2 0 83.2 134.4 83.2 147.2 0 12.8-6.4 19.2-19.2 19.2-12.8 0-19.2-6.4-19.2-19.2 0-25.6-6.4-108.8-44.8-108.8-19.2 0-32 44.8-44.8 83.2-19.2 44.8-38.4 102.4-83.2 102.4zM736 908.8c-6.4 0-6.4 0-12.8-6.4s-12.8-19.2-6.4-25.6l192-268.8c6.4-12.8 6.4-25.6-6.4-32l-32-25.6c-6.4-6.4-12.8-6.4-19.2-6.4-6.4 0-12.8 6.4-12.8 6.4l-192 281.6c-6.4 6.4-19.2 12.8-25.6 6.4-6.4-6.4-12.8-19.2-6.4-25.6l198.4-275.2c6.4-12.8 25.6-19.2 38.4-25.6 19.2 0 32 0 44.8 12.8l32 25.6c25.6 19.2 32 57.6 12.8 83.2l-192 268.8c0 6.4-6.4 6.4-12.8 6.4z" fill="#f4ea2a" p-id="13730"></path><path d="M902.4 672c-6.4 0-6.4 0-12.8-6.4l-102.4-70.4c-6.4-6.4-12.8-19.2-6.4-25.6 6.4-6.4 19.2-12.8 25.6-6.4l102.4 70.4c6.4 6.4 12.8 19.2 6.4 25.6 0 12.8-6.4 12.8-12.8 12.8zM620.8 960c-12.8 0-19.2-12.8-19.2-19.2l6.4-121.6c0-12.8 6.4-19.2 19.2-19.2 12.8 0 19.2 12.8 19.2 19.2l-6.4 121.6c0 12.8-6.4 19.2-19.2 19.2z" fill="#f4ea2a" p-id="13731"></path><path d="M620.8 960c-6.4 0-12.8-6.4-19.2-12.8-6.4-12.8 0-19.2 12.8-25.6l108.8-44.8c12.8-6.4 19.2 0 25.6 12.8 6.4 12.8 0 19.2-12.8 25.6l-108.8 44.8h-6.4z" fill="#f4ea2a" p-id="13732"></path></svg>
